#N canvas 0 25 1440 847 12;
#X msg 74 236 start;
#X obj 74 147 bng 19 250 50 0 empty empty empty 0 -10 0 12 #fcfcfc #000000 #000000;
#X obj 74 107 r bangMenu;
#X obj 1351 1130 text define -k fx;
#A set 0 ./fx/0menu_select.wav 0 0 \;;
#X obj 1385 1248 text get fx;
#X msg 1390 1202 0;
#X listbox 1355 1298 34 0 0 0 - - - 0;
#X obj 74 305 readsf~ 1;
#X msg 143 201 open /Users/matteoandrovetto/Desktop/esmupachia/pd/fx/0menu_select.wav, f 26;
#X obj 74 208 pipe 1;
#X obj 1661 929 dac~;
#X msg 74 1173 start;
#X obj 74 1084 bng 19 250 50 0 empty empty empty 0 -10 0 12 #fcfcfc #000000 #000000;
#X obj 74 1242 readsf~ 1;
#X msg 153 1138 open /Users/matteoandrovetto/Desktop/esmupachia/pd/fx/1pen.wav, f 76;
#X obj 74 1044 r bangPen;
#X obj 74 1145 pipe 1;
#X msg 1332 236 start;
#X obj 1332 147 bng 19 250 50 0 empty empty empty 0 -10 0 12 #fcfcfc #000000 #000000;
#X obj 1332 208 pipe 1;
#X msg 1411 201 open /Users/matteoandrovetto/Desktop/esmupachia/pd/fx/2key.wav, f 24;
#X obj 1332 107 r bangKey;
#X obj 1332 338 readsf~ 2;
#X obj 1104 361 s~ audiomono;
#X obj 74 1287 s~ audiomono2;
#X obj 1552 910 r~ audiomono;
#X obj 1434 910 r~ audiomono2;
#X obj 2036 357 s~ audioStereo;
#X obj 1719 910 r~ audioStereo;
#X msg 1632 236 start;
#X obj 1632 147 bng 19 250 50 0 empty empty empty 0 -10 0 12 #fcfcfc #000000 #000000;
#X obj 1632 208 pipe 1;
#X obj 1632 305 readsf~ 2;
#X msg 1711 201 open /Users/matteoandrovetto/Desktop/esmupachia/pd/fx/3diary.wav, f 24;
#X obj 1632 107 r bangDiary;
#X msg 364 236 start;
#X obj 364 147 bng 19 250 50 0 empty empty empty 0 -10 0 12 #fcfcfc #000000 #000000;
#X obj 364 342 readsf~ 1;
#X obj 364 208 pipe 1;
#X msg 1932 236 start;
#X obj 1932 147 bng 19 250 50 0 empty empty empty 0 -10 0 12 #fcfcfc #000000 #000000;
#X obj 1932 208 pipe 1;
#X obj 1932 305 readsf~ 2;
#X msg 2011 201 open /Users/matteoandrovetto/Desktop/esmupachia/pd/fx/5door_opening_closing.wav, f 24;
#X obj 1932 107 r bangDoor;
#X msg 443 201 open /Users/matteoandrovetto/Desktop/esmupachia/pd/fx/5open_inventory.wav, f 26;
#X msg 1612 585 start;
#X obj 1612 496 bng 19 250 50 0 empty empty empty 0 -10 0 12 #fcfcfc #000000 #000000;
#X obj 1612 557 pipe 1;
#X obj 1612 682 readsf~ 2;
#X msg 1691 550 open /Users/matteoandrovetto/Desktop/esmupachia/pd/fx/6item_pickup.wav, f 24;
#X obj 2337 701 s~ audioStereo2;
#X obj 1844 910 r~ audioStereo2;
#X msg 1918 584 start;
#X obj 1918 495 bng 19 250 50 0 empty empty empty 0 -10 0 12 #fcfcfc #000000 #000000;
#X obj 1918 556 pipe 1;
#X obj 1918 643 readsf~ 2;
#X msg 1997 549 open /Users/matteoandrovetto/Desktop/esmupachia/pd/fx/8wrong_code.wav, f 24;
#X obj 1918 455 r wrongCode;
#X msg 2198 584 start;
#X obj 2198 495 bng 19 250 50 0 empty empty empty 0 -10 0 12 #fcfcfc #000000 #000000;
#X obj 2198 556 pipe 1;
#X obj 2199 637 readsf~ 2;
#X msg 2277 550 open /Users/matteoandrovetto/Desktop/esmupachia/pd/fx/9correct_code.wav, f 24;
#X obj 2198 455 r correctCode;
#X obj 1918 682 *~ 0.3;
#X obj 2199 682 *~ 0.5;
#X msg 74 865 start;
#X obj 74 837 pipe 1;
#X obj 74 934 readsf~ 2;
#X obj 74 736 r fishingRod;
#X msg 153 830 open /Users/matteoandrovetto/Desktop/esmupachia/pd/fx/10fishingRod.wav, f 26;
#X msg 394 865 start;
#X obj 394 837 pipe 1;
#X obj 394 934 readsf~ 2;
#X obj 74 785 bng 19 250 50 0 empty empty empty 0 -10 0 12 #fcfcfc #000000 #000000;
#X obj 394 785 bng 19 250 50 0 empty empty empty 0 -10 0 12 #fcfcfc #000000 #000000;
#X obj 624 953 s~ audioStereo3;
#X obj 1968 910 r~ audioStereo3;
#X obj 1932 338 *~ 1;
#X msg 74 585 start;
#X obj 74 496 bng 19 250 50 0 empty empty empty 0 -10 0 12 #fcfcfc #000000 #000000;
#X obj 74 557 pipe 1;
#X obj 74 654 readsf~ 2;
#X msg 651 585 start;
#X obj 651 557 pipe 1;
#X obj 651 654 readsf~ 2;
#X obj 651 505 bng 19 250 50 0 empty empty empty 0 -10 0 12 #fcfcfc #000000 #000000;
#X obj 651 456 r stoneSteps;
#X obj 1157 673 s~ steps;
#X obj 1354 910 r~ steps;
#X msg 153 550 open /Users/matteoandrovetto/Desktop/esmupachia/pd/fx/7pathSteps_8.wav, f 24;
#X msg 364 585 start;
#X obj 364 496 bng 19 250 50 0 empty empty empty 0 -10 0 12 #fcfcfc #000000 #000000;
#X obj 364 557 pipe 1;
#X obj 364 624 readsf~ 2;
#X obj 74 457 r pathSteps8;
#X obj 364 457 r pathSteps5;
#X msg 443 550 open /Users/matteoandrovetto/Desktop/esmupachia/pd/fx/7pathSteps_5.wav, f 24;
#X obj 74 342 *~ 0.35;
#X obj 364 654 *~ 1.5;
#X obj 364 107 r openInventory;
#X msg 664 236 start;
#X obj 664 147 bng 19 250 50 0 empty empty empty 0 -10 0 12 #fcfcfc #000000 #000000;
#X obj 664 342 readsf~ 1;
#X obj 664 208 pipe 1;
#X obj 664 107 r openMap;
#X msg 743 201 open /Users/matteoandrovetto/Desktop/esmupachia/pd/fx/13map.wav, f 26;
#X obj 1633 338 *~ 0.2;
#X msg 964 236 start;
#X obj 964 147 bng 19 250 50 0 empty empty empty 0 -10 0 12 #fcfcfc #000000 #000000;
#X obj 964 302 readsf~ 1;
#X obj 964 208 pipe 1;
#X obj 964 107 r openMissions;
#X msg 1043 201 open /Users/matteoandrovetto/Desktop/esmupachia/pd/fx/14missions.wav, f 26;
#X obj 964 342 *~ 0.5;
#X obj 1612 456 r addInventory_key;
#X msg 1332 585 start;
#X obj 1332 496 bng 19 250 50 0 empty empty empty 0 -10 0 12 #fcfcfc #000000 #000000;
#X obj 1332 557 pipe 1;
#X obj 1332 652 readsf~ 2;
#X obj 1332 456 r addInventory;
#X msg 1411 550 open /Users/matteoandrovetto/Desktop/esmupachia/pd/fx/4inventory.wav, f 24;
#X obj 394 736 r fishCatch;
#X msg 473 830 open /Users/matteoandrovetto/Desktop/esmupachia/pd/fx/11fishCatch.wav, f 76;
#X msg 730 550 open /Users/matteoandrovetto/Desktop/esmupachia/pd/fx/12stoneSteps.wav, f 26;
#X msg 951 585 start;
#X obj 951 557 pipe 1;
#X obj 951 654 readsf~ 2;
#X obj 951 505 bng 19 250 50 0 empty empty empty 0 -10 0 12 #fcfcfc #000000 #000000;
#X msg 1030 550 open /Users/matteoandrovetto/Desktop/esmupachia/pd/fx/12stoneSteps5.wav, f 26;
#X obj 951 456 r stoneSteps5;
#X obj 1332 682 *~ 0.5;
#X connect 0 0 7 0;
#X connect 1 0 8 0;
#X connect 1 0 9 0;
#X connect 2 0 1 0;
#X connect 7 0 99 0;
#X connect 8 0 7 0;
#X connect 9 0 0 0;
#X connect 11 0 13 0;
#X connect 12 0 14 0;
#X connect 12 0 16 0;
#X connect 13 0 24 0;
#X connect 14 0 13 0;
#X connect 15 0 12 0;
#X connect 16 0 11 0;
#X connect 17 0 22 0;
#X connect 18 0 20 0;
#X connect 18 0 19 0;
#X connect 19 0 17 0;
#X connect 20 0 22 0;
#X connect 21 0 18 0;
#X connect 22 0 27 0;
#X connect 22 1 27 0;
#X connect 25 0 10 0;
#X connect 25 0 10 1;
#X connect 26 0 10 0;
#X connect 26 0 10 1;
#X connect 28 0 10 0;
#X connect 28 0 10 1;
#X connect 29 0 32 0;
#X connect 30 0 33 0;
#X connect 30 0 31 0;
#X connect 31 0 29 0;
#X connect 32 0 108 0;
#X connect 32 1 108 0;
#X connect 33 0 32 0;
#X connect 34 0 30 0;
#X connect 35 0 37 0;
#X connect 36 0 45 0;
#X connect 36 0 38 0;
#X connect 37 0 23 0;
#X connect 38 0 35 0;
#X connect 39 0 42 0;
#X connect 40 0 43 0;
#X connect 40 0 41 0;
#X connect 41 0 39 0;
#X connect 42 0 79 0;
#X connect 42 1 79 0;
#X connect 43 0 42 0;
#X connect 44 0 40 0;
#X connect 45 0 37 0;
#X connect 46 0 49 0;
#X connect 47 0 50 0;
#X connect 47 0 48 0;
#X connect 48 0 46 0;
#X connect 49 0 51 0;
#X connect 49 1 51 0;
#X connect 50 0 49 0;
#X connect 52 0 10 0;
#X connect 52 0 10 1;
#X connect 53 0 56 0;
#X connect 54 0 57 0;
#X connect 54 0 55 0;
#X connect 55 0 53 0;
#X connect 56 0 65 0;
#X connect 56 1 65 0;
#X connect 57 0 56 0;
#X connect 58 0 54 0;
#X connect 59 0 62 0;
#X connect 60 0 63 0;
#X connect 60 0 61 0;
#X connect 61 0 59 0;
#X connect 62 0 66 0;
#X connect 62 1 66 0;
#X connect 63 0 62 0;
#X connect 64 0 60 0;
#X connect 65 0 51 0;
#X connect 66 0 51 0;
#X connect 67 0 69 0;
#X connect 68 0 67 0;
#X connect 69 0 77 0;
#X connect 69 1 77 0;
#X connect 70 0 75 0;
#X connect 71 0 69 0;
#X connect 72 0 74 0;
#X connect 73 0 72 0;
#X connect 74 0 77 0;
#X connect 74 1 77 0;
#X connect 75 0 68 0;
#X connect 75 0 71 0;
#X connect 76 0 73 0;
#X connect 76 0 124 0;
#X connect 78 0 10 0;
#X connect 78 0 10 1;
#X connect 79 0 27 0;
#X connect 80 0 83 0;
#X connect 81 0 91 0;
#X connect 81 0 82 0;
#X connect 82 0 80 0;
#X connect 83 0 89 0;
#X connect 83 1 89 0;
#X connect 84 0 86 0;
#X connect 85 0 84 0;
#X connect 86 0 89 0;
#X connect 86 1 89 0;
#X connect 87 0 85 0;
#X connect 87 0 125 0;
#X connect 88 0 87 0;
#X connect 90 0 10 0;
#X connect 90 0 10 1;
#X connect 91 0 83 0;
#X connect 92 0 95 0;
#X connect 93 0 98 0;
#X connect 93 0 94 0;
#X connect 94 0 92 0;
#X connect 95 0 100 0;
#X connect 95 1 100 0;
#X connect 96 0 81 0;
#X connect 97 0 93 0;
#X connect 98 0 95 0;
#X connect 99 0 23 0;
#X connect 100 0 89 0;
#X connect 101 0 36 0;
#X connect 102 0 104 0;
#X connect 103 0 107 0;
#X connect 103 0 105 0;
#X connect 104 0 23 0;
#X connect 105 0 102 0;
#X connect 106 0 103 0;
#X connect 107 0 104 0;
#X connect 108 0 27 0;
#X connect 109 0 111 0;
#X connect 110 0 114 0;
#X connect 110 0 112 0;
#X connect 111 0 115 0;
#X connect 112 0 109 0;
#X connect 113 0 110 0;
#X connect 114 0 111 0;
#X connect 115 0 23 0;
#X connect 116 0 47 0;
#X connect 117 0 120 0;
#X connect 118 0 122 0;
#X connect 118 0 119 0;
#X connect 119 0 117 0;
#X connect 120 0 132 0;
#X connect 120 1 132 0;
#X connect 121 0 118 0;
#X connect 122 0 120 0;
#X connect 123 0 76 0;
#X connect 124 0 74 0;
#X connect 125 0 86 0;
#X connect 126 0 128 0;
#X connect 127 0 126 0;
#X connect 128 0 89 0;
#X connect 128 1 89 0;
#X connect 129 0 127 0;
#X connect 129 0 130 0;
#X connect 130 0 128 0;
#X connect 131 0 129 0;
#X connect 132 0 51 0;
