#N canvas 0 25 1440 847 12;
#X msg 74 236 start;
#X obj 74 147 bng 19 250 50 0 empty empty empty 0 -10 0 12 #fcfcfc #000000 #000000;
#X obj 74 107 r bangMenu;
#X obj 1583 854 text define -k fx;
#A set 0 ./fx/0menu_select.wav 0 0 \;;
#X obj 1617 972 text get fx;
#X msg 1622 926 0;
#X listbox 1587 1022 34 0 0 0 - - - 0;
#X obj 74 305 readsf~ 1;
#X obj 74 208 pipe 1;
#X obj 1330 972 dac~;
#X msg 74 533 start;
#X obj 74 444 bng 19 250 50 0 empty empty empty 0 -10 0 12 #fcfcfc #000000 #000000;
#X obj 74 602 readsf~ 1;
#X msg 153 498 open /Users/matteoandrovetto/Desktop/esmupachia/pd/fx/1pen.wav, f 76;
#X obj 74 404 r bangPen;
#X obj 74 505 pipe 1;
#X msg 1332 236 start;
#X obj 1332 147 bng 19 250 50 0 empty empty empty 0 -10 0 12 #fcfcfc #000000 #000000;
#X obj 1332 208 pipe 1;
#X obj 1332 107 r bangKey;
#X obj 1332 338 readsf~ 2;
#X obj 1104 361 s~ audiomono;
#X obj 74 647 s~ audiomono2;
#X obj 1290 923 r~ audiomono;
#X obj 1400 923 r~ audiomono2;
#X obj 2036 357 s~ audioStereo;
#X obj 1168 923 r~ audioStereo;
#X msg 1632 236 start;
#X obj 1632 147 bng 19 250 50 0 empty empty empty 0 -10 0 12 #fcfcfc #000000 #000000;
#X obj 1632 208 pipe 1;
#X obj 1632 305 readsf~ 2;
#X obj 1632 107 r bangDiary;
#X msg 364 236 start;
#X obj 364 147 bng 19 250 50 0 empty empty empty 0 -10 0 12 #fcfcfc #000000 #000000;
#X obj 364 342 readsf~ 1;
#X obj 364 208 pipe 1;
#X msg 1932 236 start;
#X obj 1932 147 bng 19 250 50 0 empty empty empty 0 -10 0 12 #fcfcfc #000000 #000000;
#X obj 1932 208 pipe 1;
#X obj 1932 305 readsf~ 2;
#X obj 1932 107 r bangDoor;
#X msg 1269 590 start;
#X obj 1269 501 bng 19 250 50 0 empty empty empty 0 -10 0 12 #fcfcfc #000000 #000000;
#X obj 1269 562 pipe 1;
#X obj 1269 687 readsf~ 2;
#X obj 1994 706 s~ audioStereo2;
#X obj 1175 994 r~ audioStereo2;
#X msg 1575 589 start;
#X obj 1575 500 bng 19 250 50 0 empty empty empty 0 -10 0 12 #fcfcfc #000000 #000000;
#X obj 1575 561 pipe 1;
#X obj 1575 648 readsf~ 2;
#X obj 1575 460 r wrongCode;
#X msg 1855 589 start;
#X obj 1855 500 bng 19 250 50 0 empty empty empty 0 -10 0 12 #fcfcfc #000000 #000000;
#X obj 1855 561 pipe 1;
#X obj 1856 642 readsf~ 2;
#X obj 1855 460 r correctCode;
#X obj 1575 687 *~ 0.3;
#X obj 1856 687 *~ 0.5;
#X msg 95 880 start;
#X obj 95 852 pipe 1;
#X obj 95 949 readsf~ 2;
#X obj 95 751 r fishingRod;
#X msg 415 880 start;
#X obj 415 852 pipe 1;
#X obj 415 949 readsf~ 2;
#X obj 415 751 r fishCatch;
#X obj 95 800 bng 19 250 50 0 empty empty empty 0 -10 0 12 #fcfcfc #000000 #000000;
#X obj 415 800 bng 19 250 50 0 empty empty empty 0 -10 0 12 #fcfcfc #000000 #000000;
#X obj 415 1035 s~ audioStereo3;
#X obj 1201 881 r~ audioStereo3;
#X obj 1932 338 *~ 1;
#X text 183 51 bangMenu;
#X msg 2399 222 start;
#X obj 2399 133 bng 19 250 50 0 empty empty empty 0 -10 0 12 #fcfcfc #000000 #000000;
#X obj 2399 194 pipe 1;
#X obj 2399 291 readsf~ 2;
#X msg 2976 222 start;
#X obj 2976 194 pipe 1;
#X obj 2976 291 readsf~ 2;
#X obj 2976 142 bng 19 250 50 0 empty empty empty 0 -10 0 12 #fcfcfc #000000 #000000;
#X obj 3114 352 hsl 162 19 0 127 0 0 empty empty empty -2 -10 0 12 #fcfcfc #000000 #000000 0 1;
#X obj 2976 93 r stoneSteps;
#X obj 3172 310 s~ steps;
#X obj 1448 887 r~ steps;
#X msg 2689 222 start;
#X obj 2689 133 bng 19 250 50 0 empty empty empty 0 -10 0 12 #fcfcfc #000000 #000000;
#X obj 2689 194 pipe 1;
#X obj 2689 261 readsf~ 2;
#X obj 2399 94 r pathSteps8;
#X obj 2689 94 r pathSteps5;
#X obj 74 342 *~ 0.35;
#X obj 2689 291 *~ 1.5;
#X obj 364 107 r openInventory;
#X text 809 580 openMap;
#X text 743 643 openMissions;
#X msg 664 236 start;
#X obj 664 147 bng 19 250 50 0 empty empty empty 0 -10 0 12 #fcfcfc #000000 #000000;
#X obj 664 342 readsf~ 1;
#X obj 664 208 pipe 1;
#X obj 664 107 r openMap;
#X obj 1633 338 *~ 0.2;
#X msg 964 236 start;
#X obj 964 147 bng 19 250 50 0 empty empty empty 0 -10 0 12 #fcfcfc #000000 #000000;
#X obj 964 302 readsf~ 1;
#X obj 964 208 pipe 1;
#X obj 964 107 r openMissions;
#X obj 964 342 *~ 0.5;
#X obj 1269 461 r addInventory_key;
#X msg 989 590 start;
#X obj 989 501 bng 19 250 50 0 empty empty empty 0 -10 0 12 #fcfcfc #000000 #000000;
#X obj 989 562 pipe 1;
#X obj 989 687 readsf~ 2;
#X obj 989 461 r addInventory;
#X msg 143 201 open /Users/Marco/Desktop/esmupachia/pd/fx/0menu_select.wav, f 26;
#X msg 443 201 open /Users/Marco/Desktop/esmupachia/pd/fx/5open_inventory.wav, f 26;
#X msg 743 201 open /Users/Marco/Desktop/esmupachia/pd/fx/13map.wav, f 26;
#X msg 1043 201 open /Users/Marco/Desktop/esmupachia/pd/fx/14missions.wav, f 26;
#X msg 1411 202 open /Users/Marco/Desktop/esmupachia/pd/fx/2key.wav, f 24;
#X msg 1711 201 open /Users/Marco/Desktop/esmupachia/pd/fx/3diary.wav, f 24;
#X msg 2011 201 open /Users/Marco/Desktop/esmupachia/pd/fx/5door_opening_closing.wav, f 24;
#X msg 2478 187 open /Users/Marco/Desktop/esmupachia/pd/fx/7pathSteps_8.wav, f 24;
#X msg 2768 187 open /Users/Marco/Desktop/esmupachia/pd/fx/7pathSteps_5.wav, f 24;
#X msg 3055 188 open /Users/Marco/Desktop/esmupachia/pd/fx/12stone_steps.wav, f 26;
#X msg 174 845 open /Users/Marco/Desktop/esmupachia/pd/fx/10fishingRod.wav, f 26;
#X msg 494 846 open /Users/Marco/Desktop/esmupachia/pd/fx/11fishCatch.wav, f 26;
#X msg 1068 555 open /Users/Marco/Desktop/esmupachia/pd/fx/4inventory.wav, f 24;
#X msg 1348 555 open /Users/Marco/Desktop/esmupachia/pd/fx/6item_pickup.wav, f 24;
#X msg 1654 554 open /Users/Marco/Desktop/esmupachia/pd/fx/8wrong_code.wav, f 24;
#X msg 1934 555 open /Users/Marco/Desktop/esmupachia/pd/fx/9correct_code.wav, f 24;
#X connect 0 0 7 0;
#X connect 1 0 114 0;
#X connect 1 0 8 0;
#X connect 2 0 1 0;
#X connect 7 0 91 0;
#X connect 8 0 0 0;
#X connect 10 0 12 0;
#X connect 11 0 13 0;
#X connect 11 0 15 0;
#X connect 12 0 22 0;
#X connect 13 0 12 0;
#X connect 14 0 11 0;
#X connect 15 0 10 0;
#X connect 16 0 20 0;
#X connect 17 0 118 0;
#X connect 17 0 18 0;
#X connect 18 0 16 0;
#X connect 19 0 17 0;
#X connect 20 0 25 0;
#X connect 20 1 25 0;
#X connect 23 0 9 0;
#X connect 23 0 9 1;
#X connect 24 0 9 0;
#X connect 24 0 9 1;
#X connect 26 0 9 0;
#X connect 26 0 9 1;
#X connect 27 0 30 0;
#X connect 28 0 119 0;
#X connect 28 0 29 0;
#X connect 29 0 27 0;
#X connect 30 0 101 0;
#X connect 30 1 101 0;
#X connect 31 0 28 0;
#X connect 32 0 34 0;
#X connect 33 0 115 0;
#X connect 33 0 35 0;
#X connect 34 0 21 0;
#X connect 35 0 32 0;
#X connect 36 0 39 0;
#X connect 37 0 120 0;
#X connect 37 0 38 0;
#X connect 38 0 36 0;
#X connect 39 0 71 0;
#X connect 39 1 71 0;
#X connect 40 0 37 0;
#X connect 41 0 44 0;
#X connect 42 0 127 0;
#X connect 42 0 43 0;
#X connect 43 0 41 0;
#X connect 44 0 45 0;
#X connect 44 1 45 0;
#X connect 46 0 9 0;
#X connect 46 0 9 1;
#X connect 47 0 50 0;
#X connect 48 0 128 0;
#X connect 48 0 49 0;
#X connect 49 0 47 0;
#X connect 50 0 57 0;
#X connect 50 1 57 0;
#X connect 51 0 48 0;
#X connect 52 0 55 0;
#X connect 53 0 129 0;
#X connect 53 0 54 0;
#X connect 54 0 52 0;
#X connect 55 0 58 0;
#X connect 55 1 58 0;
#X connect 56 0 53 0;
#X connect 57 0 45 0;
#X connect 58 0 45 0;
#X connect 59 0 61 0;
#X connect 60 0 59 0;
#X connect 61 0 69 0;
#X connect 61 1 69 0;
#X connect 62 0 67 0;
#X connect 63 0 65 0;
#X connect 64 0 63 0;
#X connect 65 0 69 0;
#X connect 65 1 69 0;
#X connect 66 0 68 0;
#X connect 67 0 60 0;
#X connect 68 0 64 0;
#X connect 70 0 9 0;
#X connect 70 0 9 1;
#X connect 71 0 25 0;
#X connect 73 0 76 0;
#X connect 74 0 121 0;
#X connect 74 0 75 0;
#X connect 75 0 73 0;
#X connect 76 0 83 0;
#X connect 76 1 83 0;
#X connect 77 0 79 0;
#X connect 78 0 77 0;
#X connect 79 0 83 0;
#X connect 79 1 83 0;
#X connect 80 0 78 0;
#X connect 82 0 80 0;
#X connect 84 0 9 0;
#X connect 84 0 9 1;
#X connect 85 0 88 0;
#X connect 86 0 122 0;
#X connect 86 0 87 0;
#X connect 87 0 85 0;
#X connect 88 0 92 0;
#X connect 88 1 92 0;
#X connect 89 0 74 0;
#X connect 90 0 86 0;
#X connect 91 0 21 0;
#X connect 92 0 83 0;
#X connect 93 0 33 0;
#X connect 96 0 98 0;
#X connect 97 0 116 0;
#X connect 97 0 99 0;
#X connect 98 0 21 0;
#X connect 99 0 96 0;
#X connect 100 0 97 0;
#X connect 101 0 25 0;
#X connect 102 0 104 0;
#X connect 103 0 117 0;
#X connect 103 0 105 0;
#X connect 104 0 107 0;
#X connect 105 0 102 0;
#X connect 106 0 103 0;
#X connect 107 0 21 0;
#X connect 108 0 42 0;
#X connect 109 0 112 0;
#X connect 110 0 126 0;
#X connect 110 0 111 0;
#X connect 111 0 109 0;
#X connect 112 0 45 0;
#X connect 112 1 45 0;
#X connect 113 0 110 0;
#X connect 114 0 7 0;
#X connect 115 0 34 0;
#X connect 116 0 98 0;
#X connect 117 0 104 0;
#X connect 118 0 20 0;
#X connect 119 0 30 0;
#X connect 120 0 39 0;
#X connect 121 0 76 0;
#X connect 122 0 88 0;
#X connect 123 0 79 0;
#X connect 124 0 61 0;
#X connect 125 0 65 0;
#X connect 126 0 112 0;
#X connect 127 0 44 0;
#X connect 128 0 50 0;
#X connect 129 0 55 0;
