#N canvas 0 25 1440 847 12;
#X obj 262 917 dac~, f 5;
#X obj 1233 454 soundfiler;
#N canvas 0 22 450 278 (subpatch) 0;
#X array fileL 2.4192e+06 float 2;
#X coords 0 1 2.4192e+06 -1 200 140 1 0 0;
#X restore 652 321 graph;
#X obj 135 384 *~;
#X obj 135 316 phasor~ 1;
#X obj 135 205 /;
#X floatatom 135 228 5 0 0 0 - - - 0;
#X msg 150 288 0;
#X obj 135 422 +~;
#X obj 135 89 r start;
#X obj 150 260 r stop;
#X obj 1178 35 loadbang;
#X obj 135 454 tabread4~ fileL;
#X obj 147 479 tabread4~ fileR;
#N canvas 0 22 450 278 (subpatch) 0;
#X array fileR 2.4192e+06 float 2;
#X coords 0 1 2.4192e+06 -1 200 140 1 0 0;
#X restore 855 321 graph;
#X obj 135 152 samplerate~;
#X obj 838 113 hsl 162 19 0 0 0 0 empty empty loop\ end -2 10 0 12 #fcfcfc #000000 #000000 0 1;
#X obj 924 149 r numFrames;
#X obj 223 167 r numFrames;
#X msg 131 867 \; pd dsp \$1;
#X obj 131 832 tgl 19 0 empty empty empty 0 -10 0 12 #fcfcfc #000000 #000000 0 1;
#X obj 398 752 s reset-phase;
#X obj 195 287 r reset-phase;
#X obj 299 721 vline~;
#X msg 366 674 1 20;
#X obj 366 624 del 20;
#X msg 299 591 0 20;
#X obj 147 505 throw~ outR;
#X obj 135 528 throw~ outL;
#X obj 262 807 catch~ outL;
#X obj 294 834 catch~ outR;
#X obj 299 745 send~ vol;
#X obj 380 843 receive~ vol;
#X obj 262 877 *~;
#X obj 294 876 *~;
#X obj 366 650 t b b;
#X obj 661 113 hsl 162 19 0 0 0 0 empty empty loop\ start -2 10 0 12 #fcfcfc #000000 #000000 0 1;
#X obj 748 60 r numFrames;
#X obj 398 719 f 0;
#X floatatom 835 222 13 0 0 0 - - - 0;
#X obj 676 166 - 400;
#X obj 872 151 + 400;
#X obj 835 187 max;
#X obj 658 199 min;
#X floatatom 658 227 11 0 0 0 - - - 0;
#X obj 659 60 r loopstart;
#X obj 871 25 r loopend;
#X msg 693 84 range 0 \$1;
#X msg 844 86 range 0 \$1;
#X obj 835 278 s loop-stops;
#X obj 401 395 r loop-stops;
#X obj 835 245 - 10;
#X obj 153 354 r numFrames;
#X text 49 316 il player;
#X text 297 385 il looper;
#X text 176 699 un inviluppo \; per evitare i \; clicks del loop;
#X obj 517 670 r numFrames;
#X obj 416 693 /;
#X obj 658 252 s loop-begins;
#X obj 416 669 r loop-begins;
#X obj 313 537 spigot;
#X obj 352 508 tgl 19 0 empty empty empty 0 -10 0 12 #fcfcfc #000000 #000000 0 1;
#X obj 313 561 s stop;
#X obj 135 122 bng 19 250 50 0 empty empty empty 0 -10 0 12 #fcfcfc #000000 #000000;
#X text 159 123 start;
#X text 375 510 opzionale: \; 1 loop off \; 0 loop on;
#X text 153 948 io ho omesso il controllo per i fade out \; ma andrebbe aggiunto in coda a questi moltiplicatori;
#X obj 1177 175 text define -k playlist;
#A set 0 ./menu_principale.wav 172800 2.4192e+06 \; 1 ./piazza.wav 86400 2.9808e+06 \;;
#X obj 1174 302 text get playlist;
#X obj 1174 351 unpack f s f f, f 26;
#X floatatom 1174 377 5 0 0 0 - - - 0;
#X listbox 1197 326 27 0 0 0 - - - 0;
#X msg 1229 61 1;
#X floatatom 1178 86 5 0 0 0 - - - 0;
#X obj 1178 109 s file;
#X obj 1174 275 r file;
#X msg 1233 427 read -resize \$1 fileL fileR;
#X msg 1190 60 0;
#X obj 1234 568 pack f f f, f 18;
#X floatatom 871 49 5 0 0 0 - - - 0;
#X listbox 1253 593 27 0 0 0 - - - 0;
#X obj 1389 491 tgl 19 0 empty empty empty 0 -10 0 12 #fcfcfc #000000 #000000 0 1;
#X obj 1389 467 == 0;
#X obj 1305 524 spigot;
#X obj 1233 478 t f f;
#X obj 1357 391 t f f;
#X text 1172 203 schema: \; <index> <nome-file> <loopstart> <loopend> \; se loopend è zero \, il file viene letto fino \; alla fine;
#X text 1175 149 doppio click per editare;
#X msg 1234 617 \; numFrames \$1 \; reset-phase 0 \; loopstart 0 \; start bang \; loopstart \$2 \; loopend \$3;
#X text 1349 630 prima il file parte da 0... \; ...gli si dice di cominciare dall'inzio... \; ...lo si fa partire... \; ...si specifica da dove ricominciare... \; ...arriva fino a.;
#X text 1262 61 da cpp si potrebbero ricevere dei numeri \; che corrispondo a dei file con relativi \; loopstart e loopend che vengono richiamati \; da "text define playlist";
#X obj 253 518 bng 19 250 50 0 empty empty empty 0 -10 0 12 #fcfcfc #000000 #000000;
#X obj 299 478 threshold~ 1 0 1 0;
#X obj 299 426 expr~ $v1 < $f2;
#X obj 299 450 expr~ $v1 == 0;
#X text 898 654 menu principale 172.8 inizio 2.419.200 fine market 86.4 inizio 2.980.800, f 23;
#X connect 1 0 84 0;
#X connect 3 0 8 0;
#X connect 3 0 93 0;
#X connect 4 0 3 0;
#X connect 5 0 6 0;
#X connect 6 0 4 0;
#X connect 7 0 4 0;
#X connect 8 0 12 0;
#X connect 8 0 13 0;
#X connect 9 0 63 0;
#X connect 10 0 7 0;
#X connect 11 0 73 0;
#X connect 11 0 77 0;
#X connect 12 0 28 0;
#X connect 13 0 27 0;
#X connect 15 0 5 0;
#X connect 16 0 42 0;
#X connect 16 0 40 0;
#X connect 17 0 42 1;
#X connect 18 0 5 1;
#X connect 20 0 19 0;
#X connect 22 0 4 1;
#X connect 23 0 31 0;
#X connect 24 0 23 0;
#X connect 25 0 35 0;
#X connect 26 0 25 0;
#X connect 26 0 23 0;
#X connect 29 0 33 0;
#X connect 30 0 34 0;
#X connect 32 0 33 1;
#X connect 32 0 34 1;
#X connect 33 0 0 0;
#X connect 34 0 0 1;
#X connect 35 0 24 0;
#X connect 35 1 38 0;
#X connect 36 0 41 0;
#X connect 36 0 43 0;
#X connect 37 0 47 0;
#X connect 37 0 48 0;
#X connect 38 0 21 0;
#X connect 39 0 51 0;
#X connect 40 0 43 1;
#X connect 41 0 42 1;
#X connect 42 0 39 0;
#X connect 43 0 44 0;
#X connect 44 0 58 0;
#X connect 45 0 36 0;
#X connect 46 0 16 0;
#X connect 46 0 79 0;
#X connect 47 0 36 0;
#X connect 48 0 16 0;
#X connect 50 0 93 1;
#X connect 51 0 49 0;
#X connect 52 0 3 1;
#X connect 56 0 57 1;
#X connect 57 0 38 1;
#X connect 59 0 57 0;
#X connect 60 0 62 0;
#X connect 61 0 60 1;
#X connect 63 0 15 0;
#X connect 68 0 69 0;
#X connect 68 0 71 0;
#X connect 69 0 70 0;
#X connect 69 1 76 0;
#X connect 69 2 78 1;
#X connect 69 3 85 0;
#X connect 72 0 73 0;
#X connect 73 0 74 0;
#X connect 75 0 68 0;
#X connect 76 0 1 0;
#X connect 77 0 73 0;
#X connect 78 0 88 0;
#X connect 78 0 80 0;
#X connect 81 0 83 1;
#X connect 82 0 81 0;
#X connect 83 0 78 2;
#X connect 84 0 78 0;
#X connect 84 1 83 0;
#X connect 85 0 78 2;
#X connect 85 1 82 0;
#X connect 92 0 91 0;
#X connect 92 0 60 0;
#X connect 92 0 26 0;
#X connect 93 0 94 0;
#X connect 94 0 92 0;
