#N canvas 0 25 1440 847 12;
#X obj 809 634 dac~, f 5;
#X msg 678 604 \; pd dsp \$1;
#X obj 678 569 tgl 19 0 empty empty empty 0 -10 0 12 #fcfcfc #000000 #000000 0 1;
#X obj 809 490 catch~ outL;
#X obj 841 517 catch~ outR;
#X text 701 665 io ho omesso il controllo per i fade out \; ma andrebbe aggiunto in coda a questi moltiplicatori;
#X obj 1177 175 text define -k playlist;
#A set 0 ./soundtrack/0menu.wav 0 0 \; 1 ./soundtrack/1casa.wav 0 0 \; 2 ./soundtrack/2bosco_loop.wav 0 0 \; 3 ./soundtrack/3mercato_loop.wav 0 0 \; 4 ./soundtrack/4sentiero.wav 0 0 \; 5 ./soundtrack/5forgia.wav 0 0 \; 6 ./soundtrack/6castello.wav 0 0 \; 7 ./soundtrack/7forest.wav 0 0 \; 8 ./soundtrack/8blacksmith.wav 0 0 \; 9 ./soundtrack/9nightAmbience.wav 0 0 \;;
#X obj 1532 257 text get playlist;
#X msg 1229 61 1;
#X floatatom 1178 86 5 0 0 0 - - - 0;
#X obj 1178 109 s file;
#X obj 1532 230 r file;
#X msg 1190 60 0;
#X text 1172 203 schema: \; <index> <nome-file> <loopstart> <loopend> \; se loopend è zero \, il file viene letto fino \; alla fine;
#X text 1175 149 doppio click per editare;
#X text 1262 61 da cpp si potrebbero ricevere dei numeri \; che corrispondo a dei file con relativi \; loopstart e loopend che vengono richiamati \; da "text define playlist";
#X text 556 894 comment;
#X msg 769 94 \; file 2 \;;
#X msg 769 133 \; loopend 1500 \;;
#X obj 1532 282 s fileCode;
#X msg 921 161 \; fadeTime 5000 \; fadeLevel 0 \;;
#X obj 701 806 random 5;
#X obj 701 858 s passi;
#X obj 701 756 tgl 19 0 empty empty empty 0 -10 0 12 #fcfcfc #000000 #000000 0 1;
#X obj 701 781 metro 500, f 10;
#X obj 890 756 route roccia erba pozza acqua neve;
#X msg 890 786 0;
#X msg 937 786 5;
#X msg 984 785 10;
#X msg 1031 786 15;
#X msg 1078 785 20;
#X obj 890 729 r ground;
#X obj 701 832 + 0, f 10;
#X obj 890 822 s collection;
#X obj 768 807 r collection;
#X obj 768 730 r rateFX;
#X msg 921 89 \; file 1 \; fadeTime 5000 \; fadeLevel 1 \;;
#X msg 922 223 \; loopmode 0 \;;
#X obj 701 730 r consec;
#X obj 375 88 r fileCode;
#X listbox 692 365 40 0 0 0 - - - 0;
#X obj 809 594 *~ 1;
#X obj 841 593 *~ 1;
#X obj 375 127 t l b, f 12;
#X obj 1105 348 s stop;
#X obj 1105 320 bng 19 250 50 0 empty empty empty 0 -10 0 12 #fcfcfc #000000 #000000;
#X msg 1181 873 TODO: - quando si manda la lista \, ci deve esserla possibilita di dirgli qual'è l'istanza di Clone da far suonare \; - ragionare su oggetto list split per gestire info \; - predisporre possibilita per un receive che riceve x informazioni x fade out \;;
#X text 327 691 player file loop fadeLevel fadeTime;
#X obj 702 238 r fadeLevel;
#X obj 702 273 r fadeTime;
#X obj 376 361 list append;
#X listbox 376 419 67 0 0 0 - - - 0;
#X obj 1281 515 r cpp;
#X obj 1282 746 s file;
#X obj 1517 772 s fadeTime;
#X obj 1333 610 s fadeout;
#X obj 644 458 r fadeout;
#X obj 1281 559 route play fadeout loop;
#X obj 644 535 list trim;
#X obj 1399 772 s fadeLevel;
#X obj 611 292 pack f f f;
#X obj 595 252 r loopmode;
#X obj 1282 666 unpack f f f f, f 34;
#X obj 1328 798 s loopmode;
#X msg 1015 441 \; cpp play 5 1 1 6000, f 22;
#X msg 1012 495 \; cpp fadeout 5 0 3000;
#X obj 1480 385 s bangTest;
#X obj 1482 313 bng 19 250 50 0 empty empty empty 0 -10 0 12 #fcfcfc #000000 #000000;
#X obj 339 572 clone player 10, f 44;
#X msg 282 443 vis 2 1;
#X connect 2 0 1 0;
#X connect 3 0 41 0;
#X connect 4 0 42 0;
#X connect 7 0 19 0;
#X connect 8 0 9 0;
#X connect 9 0 10 0;
#X connect 11 0 7 0;
#X connect 12 0 9 0;
#X connect 21 0 32 0;
#X connect 23 0 24 0;
#X connect 24 0 21 0;
#X connect 25 0 26 0;
#X connect 25 1 27 0;
#X connect 25 2 28 0;
#X connect 25 3 29 0;
#X connect 25 4 30 0;
#X connect 26 0 33 0;
#X connect 27 0 33 0;
#X connect 28 0 33 0;
#X connect 29 0 33 0;
#X connect 30 0 33 0;
#X connect 31 0 25 0;
#X connect 32 0 22 0;
#X connect 34 0 32 1;
#X connect 35 0 24 1;
#X connect 38 0 23 0;
#X connect 39 0 43 0;
#X connect 41 0 0 0;
#X connect 42 0 0 1;
#X connect 43 0 50 0;
#X connect 45 0 44 0;
#X connect 48 0 60 1;
#X connect 49 0 60 2;
#X connect 50 0 51 0;
#X connect 51 0 68 0;
#X connect 52 0 57 0;
#X connect 56 0 58 0;
#X connect 57 0 62 0;
#X connect 57 1 55 0;
#X connect 58 0 68 1;
#X connect 60 0 50 1;
#X connect 61 0 60 0;
#X connect 62 0 53 0;
#X connect 62 1 63 0;
#X connect 62 2 59 0;
#X connect 62 3 54 0;
#X connect 67 0 66 0;
#X connect 69 0 68 0;
