#N canvas 0 25 1440 847 12;
#X floatatom 308 75 5 0 0 0 - - - 0;
#X obj 333 380 *~, f 9;
#X obj 514 398 snapshot~;
#X obj 514 358 metro 100;
#X obj 514 322 tgl 19 0 empty empty empty 0 -10 0 12 #fcfcfc #000000 #000000 0 1;
#X floatatom 514 427 10 0 0 0 - - - 0;
#X obj 247 283 phasor~ 1, f 13;
#X obj 333 518 tabread4~ file;
#X obj 247 207 /, f 17;
#X floatatom 247 247 5 0 0 0 - - - 0;
#X obj 728 85 r loopend;
#X obj 333 455 +~;
#X obj 351 426 r loopstart;
#X msg 164 257 0;
#X obj 247 108 r start;
#X obj 164 217 r stop;
#X obj 353 665 vline~;
#X obj 335 698 *~;
#X obj 456 566 loadbang;
#X msg 353 625 0 2000;
#X msg 247 166 48000;
#X obj 510 608 r fadein;
#X msg 456 647 \$1 \$2;
#X msg 456 608 1 20;
#X obj 308 36 r numberOfSamples;
#X obj 755 485 s loopstart;
#X msg 754 449 0;
#X msg 335 247 0;
#X obj 308 107 t b b f f, f 12;
#X text 740 336 mercato 86.4 inizio, f 17;
#X text 643 182 menu principale 172.8 inizio 2.419.200 fine market 86.4 inizio 2.980.800, f 23;
#X msg 284 809 \; loopstart 86400 \; loopend 2.9808e+06;
#X obj 459 36 r loopend;
#X obj 284 764 r bangPiazza;
#X obj 447 764 r bangInit;
#X msg 447 795 \; loopstart 172800 \; loopend 2.4192e+06;
#X obj 335 736 outlet~;
#X obj 831 622 \$0;
#X obj 880 768 print;
#X obj 826 553 loadbang;
#X obj 353 588 r \$0-fadeout;
#X connect 0 0 28 0;
#X connect 1 0 2 0;
#X connect 1 0 11 0;
#X connect 2 0 5 0;
#X connect 3 0 2 0;
#X connect 4 0 3 0;
#X connect 6 0 1 0;
#X connect 7 0 17 0;
#X connect 8 0 9 0;
#X connect 9 0 6 0;
#X connect 11 0 7 0;
#X connect 12 0 11 1;
#X connect 13 0 6 0;
#X connect 14 0 20 0;
#X connect 15 0 13 0;
#X connect 16 0 17 1;
#X connect 17 0 36 0;
#X connect 18 0 23 0;
#X connect 19 0 16 0;
#X connect 20 0 8 0;
#X connect 21 0 22 0;
#X connect 22 0 16 0;
#X connect 23 0 22 0;
#X connect 24 0 0 0;
#X connect 26 0 25 0;
#X connect 27 0 6 1;
#X connect 28 0 20 0;
#X connect 28 1 27 0;
#X connect 28 2 8 1;
#X connect 28 3 1 1;
#X connect 32 0 0 0;
#X connect 33 0 31 0;
#X connect 34 0 35 0;
#X connect 37 0 38 0;
#X connect 39 0 37 0;
#X connect 40 0 19 0;
