#N canvas 0 25 1440 847 12;
#X obj -134 909 readsf~ 2;
#X text -314 911 legge file stereofonico;
#X msg -112 858 start;
#X obj -134 992 dac~, f 5;
#X obj -30 950 env~;
#X floatatom -30 988 5 0 0 0 - - - 0;
#X msg -46 859 stop;
#N canvas 0 22 450 278 (subpatch) 0;
#X array file 1.38854e+06 float 2;
#X coords 0 1 1.38854e+06 -1 200 140 1;
#X restore 293 124 graph;
#X msg -134 823 open ./birds_chirping1.wav;
#X floatatom 732 58 5 0 0 0 - - - 0;
#X obj 757 363 *~, f 9;
#X obj 938 381 snapshot~;
#X obj 938 341 metro 100;
#X obj 938 305 tgl 19 0 empty empty empty 0 -10 0 12 #fcfcfc #000000 #000000 0 1;
#X floatatom 938 410 10 0 0 0 - - - 0;
#X obj 671 266 phasor~ 1, f 13;
#X obj 757 501 tabread4~ file;
#X obj 671 190 /, f 17;
#X floatatom 671 230 5 0 0 0 - - - 0;
#X obj 759 713 dac~;
#X obj 347 1403 vsl 19 162 0 127 0 0 empty empty empty 0 -9 0 12 #fcfcfc #000000 #000000 0 1;
#X text 90 513 file length 2.2464e+06 loop start 172800 end 2.4192e+06;
#X obj 1152 68 r loopend;
#X obj 757 438 +~;
#X obj 775 409 r loopstart;
#X msg -61 496 \; loopstart 172800 \; loopend 2.2464e+06;
#X msg 588 240 0;
#X obj 671 91 r start;
#X obj 588 200 r stop;
#X obj -73 242 soundfiler;
#X obj -74 144 loadbang;
#X obj -73 279 bng 19 250 50 0 empty empty empty 0 -10 0 12 #fcfcfc #000000 #000000;
#X obj 777 648 vline~;
#X obj 759 681 *~;
#X obj 880 549 loadbang;
#X obj 777 571 r fadeout;
#X msg 777 608 0 2000;
#X msg 671 149 48000;
#X msg -74 207 read -resize \$1 file, f 46;
#X obj 8 20 r soundFile;
#X obj 8 144 symbol \$1;
#X obj 934 591 r fadein;
#X msg 880 630 \$1 \$2;
#X msg 880 591 1 20;
#X msg 111 70 menu_principale.wav;
#X msg 111 44 piazza.wav;
#X obj -35 279 s numberOfSamples;
#X obj 732 19 r numberOfSamples;
#X obj 1179 468 s loopstart;
#X msg 1178 432 0;
#X msg 759 230 0;
#X obj 732 90 t b b f f, f 12;
#X obj -331 600 hsl 162 19 0 127 0 0 empty empty empty -2 -10 0 12 #fcfcfc #000000 #000000 0 1;
#X text 1164 319 mercato 86.4 inizio, f 17;
#X text 1067 165 menu principale 172.8 inizio 2.419.200 fine market 86.4 inizio 2.980.800, f 23;
#X msg 708 792 \; loopstart 86400 \; loopend 2.9808e+06;
#X obj 883 19 r loopend;
#X obj 708 747 r bangPiazza;
#X obj 871 747 r bangInit;
#X msg 871 778 \; loopstart 172800 \; loopend 2.4192e+06;
#X msg -20 771 open ./knock_door.wav;
#X obj 47 1209 readsf~ 2;
#X msg 47 1156 start;
#X obj 47 1292 dac~, f 5;
#X obj 151 1250 env~;
#X floatatom 151 1288 5 0 0 0 - - - 0;
#X msg 113 1157 stop;
#X msg 188 1132 open ./knock_door.wav;
#X obj 117 1050 bng 19 250 50 0 empty empty empty 0 -10 0 12 #fcfcfc #000000 #000000;
#X obj 46 1093 pipe 10;
#X obj 140 998 r doorBang;
#X obj 412 1205 readsf~ 2;
#X msg 412 1152 start;
#X obj 412 1288 dac~, f 5;
#X obj 516 1246 env~;
#X floatatom 516 1284 5 0 0 0 - - - 0;
#X msg 478 1153 stop;
#X obj 482 1046 bng 19 250 50 0 empty empty empty 0 -10 0 12 #fcfcfc #000000 #000000;
#X obj 411 1089 pipe 10;
#X obj 505 994 r selectBang;
#X obj 782 1205 readsf~ 2;
#X msg 782 1152 start;
#X obj 782 1288 dac~, f 5;
#X obj 886 1246 env~;
#X floatatom 886 1284 5 0 0 0 - - - 0;
#X msg 848 1153 stop;
#X obj 852 1046 bng 19 250 50 0 empty empty empty 0 -10 0 12 #fcfcfc #000000 #000000;
#X obj 781 1089 pipe 10;
#X msg 553 1128 open ./menu_select.wav;
#X msg 923 1128 open ./door_opening_closing.wav;
#X obj 852 994 r doorBang2;
#X obj 1135 798 bng 19 250 50 0 empty empty empty 0 -10 0 12 #fcfcfc #000000 #000000;
#X obj 1135 822 s bangInit;
#X msg 1171 1046 1;
#X obj 1171 1078 s doorBang2;
#X obj 962 994 r doorBang2_mute;
#X msg 1171 1106 1;
#X obj 1171 1138 s doorBang2_mute;
#X msg 111 97 casa.wav;
#X msg 518 792 \; loopstart 86400 \; loopend 2.9808e+06;
#X obj 518 747 r bangCasa;
#X connect 0 0 3 0;
#X connect 0 0 4 0;
#X connect 0 1 3 1;
#X connect 2 0 0 0;
#X connect 4 0 5 0;
#X connect 6 0 0 0;
#X connect 8 0 0 0;
#X connect 9 0 51 0;
#X connect 10 0 11 0;
#X connect 10 0 23 0;
#X connect 11 0 14 0;
#X connect 12 0 11 0;
#X connect 13 0 12 0;
#X connect 15 0 10 0;
#X connect 16 0 33 0;
#X connect 17 0 18 0;
#X connect 18 0 15 0;
#X connect 23 0 16 0;
#X connect 24 0 23 1;
#X connect 26 0 15 0;
#X connect 27 0 37 0;
#X connect 28 0 26 0;
#X connect 29 0 31 0;
#X connect 29 0 46 0;
#X connect 30 0 38 0;
#X connect 32 0 33 1;
#X connect 33 0 19 0;
#X connect 33 0 19 1;
#X connect 34 0 43 0;
#X connect 35 0 36 0;
#X connect 36 0 32 0;
#X connect 37 0 17 0;
#X connect 38 0 29 0;
#X connect 39 0 40 0;
#X connect 40 0 38 0;
#X connect 41 0 42 0;
#X connect 42 0 32 0;
#X connect 43 0 42 0;
#X connect 44 0 40 0;
#X connect 45 0 40 0;
#X connect 47 0 9 0;
#X connect 49 0 48 0;
#X connect 50 0 15 1;
#X connect 51 0 37 0;
#X connect 51 1 50 0;
#X connect 51 2 17 1;
#X connect 51 3 10 1;
#X connect 56 0 9 0;
#X connect 57 0 55 0;
#X connect 58 0 59 0;
#X connect 60 0 0 0;
#X connect 61 0 63 0;
#X connect 61 0 64 0;
#X connect 61 1 63 1;
#X connect 62 0 61 0;
#X connect 64 0 65 0;
#X connect 66 0 61 0;
#X connect 67 0 61 0;
#X connect 68 0 67 0;
#X connect 68 0 69 0;
#X connect 69 0 62 0;
#X connect 70 0 68 0;
#X connect 71 0 73 0;
#X connect 71 0 74 0;
#X connect 71 0 73 1;
#X connect 71 1 73 1;
#X connect 72 0 71 0;
#X connect 74 0 75 0;
#X connect 76 0 71 0;
#X connect 77 0 88 0;
#X connect 77 0 78 0;
#X connect 78 0 72 0;
#X connect 79 0 77 0;
#X connect 80 0 82 0;
#X connect 80 0 83 0;
#X connect 80 1 82 1;
#X connect 81 0 80 0;
#X connect 83 0 84 0;
#X connect 85 0 80 0;
#X connect 86 0 89 0;
#X connect 86 0 87 0;
#X connect 87 0 81 0;
#X connect 88 0 71 0;
#X connect 89 0 80 0;
#X connect 90 0 86 0;
#X connect 91 0 92 0;
#X connect 93 0 94 0;
#X connect 95 0 86 0;
#X connect 95 0 85 0;
#X connect 96 0 97 0;
#X connect 98 0 40 0;
#X connect 100 0 99 0;
