#N canvas 0 25 720 847 12;
#X obj 104 130 readsf~ 2;
#X text -76 132 legge file stereofonico;
#X msg 126 79 start;
#X obj 104 213 dac~, f 5;
#X obj 208 171 env~;
#X floatatom 208 209 5 0 0 0 - - - 0;
#X msg 192 80 stop;
#N canvas 0 22 450 278 (subpatch) 0;
#X array file 2.6583e+06 float 2;
#X coords 0 1 2.6583e+06 -1 200 140 1;
#X restore 434 318 graph;
#X msg 104 44 open ./birds_chirping1.wav;
#X floatatom 58 504 5 0 0 0 - - - 0;
#X obj 86 739 *~;
#X obj 243 757 snapshot~;
#X obj 243 717 metro 100;
#X obj 243 681 tgl 19 0 empty empty empty 0 -10 0 12 #fcfcfc #000000 #000000 0 1;
#X floatatom 243 786 10 0 0 0 - - - 0;
#X obj -14 692 phasor~ 1;
#X obj 86 877 tabread4~ file;
#X obj 246 838 env~;
#X floatatom 246 876 5 0 0 0 - - - 0;
#X msg -14 575 44100;
#X obj -14 616 /;
#X obj 58 536 t b f f;
#X floatatom -14 656 5 0 0 0 - - - 0;
#X obj 86 916 dac~;
#X obj 35 996 vsl 19 162 0 127 0 0 empty empty empty 0 -9 0 12 #fcfcfc #000000 #000000 0 1;
#X text -49 450 file length 2.2464e+06 loop start 172800 end 2.4192e+06;
#X obj 163 465 r loopend;
#X obj 82 814 +~;
#X obj 117 792 r loopstart;
#X msg -41 383 \; loopstart 172800 \; loopend 2.2464e+06;
#X msg 77 627 0;
#X obj -25 509 r start;
#X obj 77 587 r stop;
#X obj -34 304 soundfiler;
#X msg -34 277 read -resize ./menu_principale.wav file, f 46;
#X obj -35 206 loadbang;
#X obj -35 349 bng 19 250 50 0 empty empty empty 0 -10 0 12 #fcfcfc #000000 #000000;
#X connect 0 0 3 0;
#X connect 0 0 4 0;
#X connect 0 1 3 1;
#X connect 2 0 0 0;
#X connect 4 0 5 0;
#X connect 6 0 0 0;
#X connect 8 0 0 0;
#X connect 9 0 21 0;
#X connect 10 0 11 0;
#X connect 10 0 27 0;
#X connect 11 0 14 0;
#X connect 12 0 11 0;
#X connect 13 0 12 0;
#X connect 15 0 10 0;
#X connect 16 0 23 0;
#X connect 16 0 17 0;
#X connect 17 0 18 0;
#X connect 19 0 20 0;
#X connect 20 0 22 0;
#X connect 21 0 19 0;
#X connect 21 1 20 1;
#X connect 21 2 10 1;
#X connect 22 0 15 0;
#X connect 26 0 9 0;
#X connect 27 0 16 0;
#X connect 28 0 27 1;
#X connect 30 0 15 0;
#X connect 31 0 19 0;
#X connect 32 0 30 0;
#X connect 33 0 36 0;
#X connect 34 0 33 0;
#X connect 35 0 34 0;
#X connect 36 0 29 0;
