#N canvas 0 25 1440 847 12;
#X obj 1106 456 hsl 162 19 0 2.4198e+06 0 0 empty empty loop\ end -2 10 0 12 #fcfcfc #000000 #000000 0 1;
#X obj 879 456 hsl 162 19 0 2.4198e+06 0 0 empty empty loop\ start -2 10 0 12 #fcfcfc #000000 #000000 0 1;
#X floatatom 1103 565 13 0 0 0 - - - 0;
#X obj 894 511 - 400;
#X obj 1121 506 + 400;
#X obj 1103 538 max;
#X obj 876 541 min;
#X floatatom 876 568 11 0 0 0 - - - 0;
#X msg 876 385 range 0 \$1;
#X msg 1104 384 range 0 \$1;
#X obj 1103 588 - 10;
#X floatatom 1117 432 5 0 0 0 - - - 0;
#X floatatom 886 434 5 0 0 0 - - - 0;
#X obj 195 339 *~;
#X obj 195 265 phasor~ 1;
#X obj 195 160 /, f 14;
#X floatatom 195 183 5 0 0 0 - - - 0;
#X obj 195 377 +~;
#X obj 195 107 samplerate~;
#X obj 416 725 vline~;
#X msg 434 685 1 20;
#X obj 434 586 del 20;
#X msg 416 546 0 20;
#X obj 206 625 throw~ outR;
#X obj 194 648 throw~ outL;
#X obj 434 661 t b b, f 12;
#X obj 515 723 f 0, f 7;
#X text 414 340 il looper;
#X obj 561 697 /;
#X obj 454 492 spigot, f 17;
#X obj 570 462 tgl 19 0 empty empty empty 0 -10 0 12 #fcfcfc #000000 #000000 0 1;
#X obj 195 77 bng 19 250 50 0 empty empty empty 0 -10 0 12 #fcfcfc #000000 #000000;
#X text 219 78 start;
#X text 593 464 opzionale: \; 1 loop off \; 0 loop on;
#X obj 392 465 bng 19 250 50 0 empty empty empty 0 -10 0 12 #fcfcfc #000000 #000000;
#X obj 416 433 threshold~ 1 0 1 0;
#X obj 416 381 expr~ $v1 < $f2;
#X obj 416 405 expr~ $v1 == 0;
#X text 671 399 messaggio da mandare per attivare il loop, f 13;
#X obj 213 311 r \$0-numFrames;
#X obj 1168 506 r \$0-numFrames;
#X obj 957 343 r \$0-numFrames;
#X obj 290 107 r \$0-numFrames;
#X obj 696 673 r \$0-numFrames;
#X obj 886 410 r \$0-loopstart;
#X obj 1117 408 r \$0-loopend;
#X obj 876 621 s \$0-loop-begins;
#X obj 1103 621 s \$0-loop-stops;
#X obj 518 350 r \$0-loop-stops;
#X obj 561 673 r \$0-loop-begins;
#X obj 515 756 s \$0-reset-phase;
#X obj 255 239 r \$0-reset-phase;
#X obj 53 367 r \$0-fadeTime;
#X obj 212 212 r \$0-stop;
#X msg 212 237 0;
#X obj 195 409 tabread4~ \$0-fileL;
#X obj 226 434 tabread4~ \$0-fileR;
#X obj 1443 515 soundfiler;
#X listbox 1365 385 55 0 0 0 - - - 0;
#X listbox 1463 654 45 0 0 0 - - - 0;
#X obj 1665 552 tgl 19 0 empty empty empty 0 -10 0 12 #fcfcfc #000000 #000000 0 1;
#X obj 1665 528 == 0;
#X obj 1475 587 spigot, f 27;
#X obj 1443 539 t f f;
#X obj 1619 452 t f f, f 8;
#X text 1559 691 prima il file parte da 0... \; ...gli si dice di cominciare dall'inzio... \; ...lo si fa partire... \; ...si specifica da dove ricominciare... \; ...arriva fino a.;
#X obj 1356 358 r \$0-fileCode;
#X obj 195 39 r \$0-start;
#X msg 1444 678 \; \$4-numFrames \$1 \; \$4-reset-phase 0 \; \$4-loopstart 0 \; \$4-start bang \; \$4-loopstart \$2 \; \$4-loopend \$3;
#X obj 1443 629 pack f f f f, f 38;
#X obj 1706 590 \$0;
#X obj 1706 562 loadbang;
#X msg 1443 488 read -resize \$1 \$2-fileL \$2-fileR;
#X obj 1451 453 pack s f;
#X obj 243 188 r stop;
#X obj 416 756 send~ \$0-vol;
#X obj 244 464 receive~ \$0-vol;
#X obj 194 496 *~;
#X obj 226 497 *~;
#X listbox -28 500 7 0 0 0 - - - 0;
#X obj 869 29 inlet;
#X obj 936 172 s \$0-fileCode;
#X obj 1155 275 s \$0-loopMode;
#X obj 1252 245 s \$0-fadeTime;
#X obj 869 122 route bang;
#X obj 1088 122 route bang;
#X obj 571 942 vsl 19 162 0 127 0 0 empty empty empty 0 -9 0 12 #fcfcfc #000000 #000000 0 1;
#X obj 418 1140 vline~;
#X obj 194 558 *~;
#X obj 227 559 *~;
#X obj 79 506 vline~;
#X obj 1459 207 inlet;
#X obj 1088 166 list split 1;
#X obj 1088 232 route bang;
#X obj 1185 214 route bang;
#X floatatom 1459 250 5 0 0 0 - - - 0;
#X obj 77 582 snapshot~;
#X obj 2 653 expr~ $v1 == 0;
#X obj 6 716 threshold~ 1 0 1 0;
#X obj 6 759 s \$0-stop;
#X obj -3 835 bng 19 250 50 0 empty empty empty 0 -10 0 12 #fcfcfc #000000 #000000;
#X obj 514 547 s \$0-stop;
#X listbox 1009 30 20 0 0 0 - - - 0;
#X listbox 700 192 41 0 0 0 - - - 0;
#X listbox 1264 128 20 0 0 0 - - - 0;
#X obj 869 71 list split 3, f 63;
#X obj 1356 412 unpack s f f, f 38;
#X obj 883 696 table \$0-fileL;
#X obj 1027 691 table \$0-fileR;
#X obj 570 437 r \$0-loopMode;
#X connect 0 0 5 0;
#X connect 0 0 3 0;
#X connect 1 0 4 0;
#X connect 1 0 6 0;
#X connect 2 0 10 0;
#X connect 3 0 6 1;
#X connect 4 0 5 1;
#X connect 5 0 2 0;
#X connect 6 0 7 0;
#X connect 7 0 46 0;
#X connect 8 0 1 0;
#X connect 9 0 0 0;
#X connect 10 0 47 0;
#X connect 13 0 17 0;
#X connect 13 0 36 0;
#X connect 14 0 13 0;
#X connect 15 0 16 0;
#X connect 16 0 14 0;
#X connect 17 0 55 0;
#X connect 17 0 56 0;
#X connect 18 0 15 0;
#X connect 19 0 75 0;
#X connect 20 0 19 0;
#X connect 21 0 25 0;
#X connect 22 0 21 0;
#X connect 22 0 19 0;
#X connect 25 0 20 0;
#X connect 25 1 26 0;
#X connect 26 0 50 0;
#X connect 28 0 26 1;
#X connect 29 0 101 0;
#X connect 30 0 29 1;
#X connect 31 0 18 0;
#X connect 35 0 34 0;
#X connect 35 0 29 0;
#X connect 35 0 22 0;
#X connect 36 0 37 0;
#X connect 37 0 35 0;
#X connect 39 0 13 1;
#X connect 40 0 5 1;
#X connect 41 0 8 0;
#X connect 41 0 9 0;
#X connect 42 0 15 1;
#X connect 43 0 28 1;
#X connect 44 0 1 0;
#X connect 44 0 12 0;
#X connect 45 0 0 0;
#X connect 45 0 11 0;
#X connect 48 0 36 1;
#X connect 49 0 28 0;
#X connect 51 0 14 1;
#X connect 52 0 90 0;
#X connect 52 0 79 0;
#X connect 53 0 54 0;
#X connect 54 0 14 0;
#X connect 55 0 77 0;
#X connect 56 0 78 0;
#X connect 57 0 63 0;
#X connect 60 0 62 1;
#X connect 61 0 60 0;
#X connect 62 0 69 2;
#X connect 63 0 69 0;
#X connect 63 1 62 0;
#X connect 64 0 69 2;
#X connect 64 1 61 0;
#X connect 66 0 58 0;
#X connect 66 0 106 0;
#X connect 67 0 31 0;
#X connect 69 0 68 0;
#X connect 69 0 59 0;
#X connect 70 0 69 3;
#X connect 70 0 73 1;
#X connect 71 0 70 0;
#X connect 72 0 57 0;
#X connect 73 0 72 0;
#X connect 74 0 54 0;
#X connect 76 0 77 1;
#X connect 76 0 78 1;
#X connect 77 0 88 0;
#X connect 78 0 89 0;
#X connect 80 0 102 0;
#X connect 80 0 105 0;
#X connect 84 1 81 0;
#X connect 85 1 92 0;
#X connect 88 0 24 0;
#X connect 89 0 23 0;
#X connect 90 0 88 1;
#X connect 90 0 89 1;
#X connect 90 0 97 0;
#X connect 91 0 83 0;
#X connect 91 0 95 0;
#X connect 92 0 93 0;
#X connect 92 1 94 0;
#X connect 93 1 82 0;
#X connect 94 1 83 0;
#X connect 97 0 98 0;
#X connect 98 0 99 0;
#X connect 98 0 100 0;
#X connect 105 0 84 0;
#X connect 105 0 103 0;
#X connect 105 1 85 0;
#X connect 105 1 104 0;
#X connect 106 0 73 0;
#X connect 106 1 69 1;
#X connect 106 2 64 0;
#X connect 109 0 30 0;
