#N canvas 746 167 1146 839 10;
#X obj 21 97 osc~ 880;
#X obj 20 202 dac~;
#X obj 20 128 *~ 0.3;
#X obj 96 147 *~ 0.3;
#X obj 167 82 random 128;
#X obj 167 109 send cursor;
#X obj 20 175 *~;
#X obj 95 116 osc~ 2;
#X obj 167 51 metro 100;
#X obj 95 23 r FromCpp;
#X obj 95 87 vline~;
#X msg 95 63 \$1 100;
#X floatatom 95 43 5 0 0 0 - - - 0;
#X obj 282 267 r bangTest;
#X obj 403 271 tgl 16 0 empty empty empty 0 -8 0 10 #fcfcfc #000000 #000000 0 1;
#X obj 184 311 bng 16 250 50 0 empty empty empty 0 -8 0 10 #fcfcfc #000000 #000000;
#X obj 345 578 print;
#X obj 43 23 bng 16 250 50 0 empty empty empty 0 -8 0 10 #fcfcfc #000000 #000000;
#X msg 326 525 ciao;
#X connect 0 0 2 0;
#X connect 2 0 6 0;
#X connect 3 0 6 1;
#X connect 4 0 5 0;
#X connect 6 0 1 0;
#X connect 6 0 1 1;
#X connect 7 0 3 0;
#X connect 8 0 4 0;
#X connect 9 0 12 0;
#X connect 10 0 7 0;
#X connect 11 0 10 0;
#X connect 12 0 11 0;
#X connect 13 0 15 0;
#X connect 13 0 12 0;
#X connect 15 0 18 0;
#X connect 17 0 12 0;
#X connect 18 0 16 0;
